<?xml version="1.0" encoding="utf-8" ?>
<svg xmlns="http://www.w3.org/2000/svg" xmlns:xlink="http://www.w3.org/1999/xlink" width="512" height="512">
	<path d="M345.625 94.9651L325.256 104.954C320.068 107.64 314.769 110.711 309.278 112.721L393.026 162.635L367.244 213.986C360.518 210.918 354.301 207.038 348.029 203.156L264.139 152.514C261.067 150.62 258.005 148.594 254.668 147.194L143.162 213.689C142.421 212.801 141.913 211.209 141.419 210.132L127.268 180.664C124.511 174.86 122.079 168.406 118.545 163.047L118.363 162.775C122.021 161.184 125.482 158.75 128.912 156.709L200.693 114.684L175.424 100.653C167.102 96.1222 158.59 91.0094 149.353 88.6431C119.416 80.9733 87.884 105.965 93.2915 136.739C94.7592 145.092 99.6566 153.199 103.237 160.848L138.662 232.573L247.041 437.855C248.515 440.512 250.26 443.476 250.736 446.516C254.149 468.341 228.725 481.971 210.091 469.893C199.607 463.097 206.929 464.606 192.866 464.137C107.471 461.285 38.5624 399.029 23.6011 316.035C22.7714 311.432 21.866 306.662 21.4948 302C18.4532 263.794 30.7956 223.534 53.3713 192.813C58.9426 185.232 58.9588 188.698 55.389 179.949L47.5809 161.261C44.7981 153.81 42.7224 145.957 41.866 138.036C36.5139 88.5376 75.7346 41.3766 125.473 37.2318C129.639 36.8846 133.859 36.9799 138.038 36.9794L376.434 36.9521C380.741 36.9573 385.123 36.8336 389.407 37.3271C431.145 42.1357 466.143 77.5935 469.862 119.606C472.803 152.82 458.156 173.997 445.178 202.226L417.397 260.501L388.096 317.422L341.474 404.299L359.474 398.49C394.269 385.028 419.588 359.568 430.733 324.166C435.926 307.668 437.644 292.28 434.734 275.125L433.008 266.062C431.645 259.832 431.472 261.319 434.32 255.529L459.702 199.203L465.263 205.912C493.914 243.265 496.525 301.945 480.991 345.193C455.464 416.259 390.557 460.491 315.806 463.796L309.905 464.112C306.51 464.336 305.738 465.504 303.246 467.811C285.032 484.667 254.019 466.618 261.238 444.518C262.252 441.415 263.939 438.471 265.437 435.583L304.184 360.344L363.507 249.198L410.928 154.828C412.748 150.97 414.725 147.138 416.27 143.162C429.031 110.317 393.039 78.67 359.584 89.1073C354.77 90.609 350.195 92.8557 345.625 94.9651ZM85.7242 245.971C66.508 284.495 76.4945 334.778 104.941 365.972C114.924 376.919 127.916 387.582 141.16 394.136L162.851 402.524L171.31 404.524L85.7242 245.971Z"/>
</svg>
